<svg width="1280" height="800" viewBox="0 0 1280 800" fill="none" xmlns="http://www.w3.org/2000/svg">
<g clip-path="url(#clip0_3513_1115)">
<rect width="1280" height="800" fill="#E3FCF7"/>
<path d="M730.737 -60C667.108 -60 615.526 -8.41799 615.526 55.2111V284.289C615.526 347.671 564.145 399.051 500.763 399.051C437.381 399.051 386 450.88 386 514.263C386 577.646 437.381 629.474 500.763 629.474C564.145 629.474 615.526 680.854 615.526 744.237C615.526 807.62 667.355 859 730.737 859C794.119 859 845.949 807.62 845.949 744.237C845.949 680.854 897.328 629.474 960.712 629.474H1075.47C1202.24 629.474 1305 526.262 1305 399.5C1305 272.736 1202.24 169.526 1075.47 169.526H960.712C897.328 169.526 845.949 118.145 845.949 54.7628C845.949 -8.61901 794.119 -60 730.737 -60Z" fill="#E9FF99"/>
<g clip-path="url(#clip1_3513_1115)">
<path d="M893.587 219.718L865.156 180.268C862.277 176.272 856.321 176.272 853.442 180.268L816.52 231.498C812.894 236.527 812.894 243.313 816.52 248.343L844.952 287.793C847.831 291.789 853.787 291.789 856.666 287.793L893.587 236.563C897.214 231.533 897.214 224.748 893.587 219.718ZM859.24 193.408C856.91 193.408 855.02 190.999 855.02 188.027C855.02 185.054 856.91 182.645 859.24 182.645C861.569 182.645 863.459 185.054 863.459 188.027C863.459 190.999 861.569 193.408 859.24 193.408Z" fill="white" stroke="#231F20" stroke-linejoin="round"/>
<path d="M1182.6 669.237C1197.55 679.983 1205.02 696.462 1205.02 712.945C1205.02 729.425 1197.54 745.908 1182.6 756.653L1142 785.846L1095.87 819.02L1053.29 849.641C1018.16 874.895 970.809 874.895 935.685 849.641L893.102 819.02L834.298 776.737L804.314 755.178C800.55 752.47 796.133 751.121 791.715 751.121C787.298 751.121 782.877 752.474 779.113 755.181L487.563 964.824L386.18 891.92L487.566 819.02L690.332 673.219L732.919 642.597C768.039 617.344 815.395 617.344 850.516 642.597L893.102 673.219L971.384 729.507C985.183 739.431 1003.79 739.427 1017.58 729.507C1028.91 721.364 1028.91 704.526 1017.58 696.38L939.232 640.041L837.846 567.141L736.463 494.244L708.02 473.79C690.088 460.894 681.12 441.119 681.12 421.344C681.12 401.568 690.088 381.79 708.02 368.897L837.846 275.543L927.076 211.385C933.054 207.087 933.054 198.201 927.076 193.9L837.846 129.742L736.463 56.8417L837.846 -16.0587L939.232 56.8417L1040.62 129.742L1081.21 158.935C1111.1 180.426 1111.1 224.855 1081.21 246.347L1040.62 275.539L939.232 348.44L850.002 412.598C844.024 416.895 844.024 425.781 850.002 430.082L939.232 494.24L1040.62 567.137L1182.6 669.23L1182.6 669.237Z" fill="#0067FE" stroke="#231F20" stroke-linejoin="round"/>
<path d="M837.849 474.379L939.236 547.28V640.045L837.849 567.145V474.379Z" fill="#0067FE" stroke="#231F20" stroke-linejoin="round"/>
<path d="M918.054 573.19V606.828L881.291 580.396V546.759L918.054 573.19Z" fill="white" stroke="#231F20" stroke-linejoin="round"/>
<path d="M881.291 546.759L918.054 606.828" stroke="#231F20" stroke-linejoin="round"/>
<path d="M918.054 573.19L881.291 580.396" stroke="#231F20" stroke-linejoin="round"/>
<path d="M939.236 255.682V348.447L1040.62 275.546V182.781L939.236 255.682Z" fill="#0067FE" stroke="#231F20" stroke-linejoin="round"/>
<path d="M1011.99 218.824V225.821L1027.77 214.472V207.475L1011.99 218.824Z" fill="white" stroke="#231F20" stroke-linejoin="round"/>
<path d="M1007.99 227.096C1008.48 225.271 1007.88 223.53 1006.66 223.209C1005.44 222.887 1004.06 224.105 1003.58 225.93C1003.1 227.755 1003.69 229.496 1004.91 229.817C1006.13 230.139 1007.51 228.921 1007.99 227.096Z" fill="white" stroke="#231F20" stroke-linejoin="round"/>
<path d="M736.466 401.482L837.849 474.379V567.144L736.466 494.248V401.482Z" fill="#0067FE" stroke="#231F20" stroke-linejoin="round"/>
<path d="M834.298 683.975L935.685 756.876V849.638L834.298 776.737V683.975Z" fill="#0067FE" stroke="#231F20" stroke-linejoin="round"/>
<path d="M749.133 683.975L647.746 756.876V849.638L749.133 776.737V683.975Z" fill="#0067FE" stroke="#231F20" stroke-linejoin="round"/>
<path d="M647.746 756.876L546.36 829.776V922.538L647.746 849.638V756.876Z" fill="#0067FE" stroke="#231F20" stroke-linejoin="round"/>
<path d="M939.232 547.28L1040.62 620.18V712.945L939.232 640.045V547.28Z" fill="#0067FE" stroke="#231F20" stroke-linejoin="round"/>
<path d="M850.006 412.605V319.84L939.236 255.682V348.447L850.006 412.605Z" fill="#0067FE" stroke="#231F20" stroke-linejoin="round"/>
<path d="M736.466 -35.92V56.8453L837.849 129.746V36.9804L736.466 -35.92Z" fill="#0067FE" stroke="#231F20" stroke-linejoin="round"/>
<path d="M837.849 36.9803V129.746L927.08 193.904V101.138L837.849 36.9803Z" fill="#0067FE" stroke="#231F20" stroke-linejoin="round"/>
<path d="M1182.6 576.472C1197.55 587.218 1205.02 603.697 1205.02 620.18C1205.02 636.659 1197.54 653.142 1182.6 663.888L1142 693.08L1095.87 726.254L1053.29 756.876C1018.16 782.13 970.809 782.13 935.685 756.876L893.102 726.254L834.298 683.972L804.314 662.412C796.787 657.002 786.64 657.002 779.113 662.412L487.563 872.055L386.18 799.155L487.566 726.254L690.332 580.454L732.919 549.832C768.039 524.578 815.395 524.578 850.516 549.832L893.102 580.454L971.384 636.742C985.183 646.665 1003.79 646.662 1017.58 636.742C1028.91 628.599 1028.91 611.761 1017.58 603.614L939.232 547.276L837.846 474.376L736.463 401.479L708.02 381.025C672.156 355.236 672.156 301.917 708.02 276.128L837.846 182.774L927.076 118.616C933.054 114.318 933.054 105.432 927.076 101.131L837.846 36.9732L736.463 -35.9272L837.849 -108.82L939.236 -35.92L1040.62 36.9804L1081.22 66.1728C1111.1 87.6642 1111.1 132.094 1081.22 153.585L1040.62 182.778L939.236 255.678L850.005 319.836C844.028 324.134 844.028 333.02 850.005 337.321L939.236 401.479L1040.62 474.376L1182.6 576.468V576.472Z" fill="#0067FE" stroke="#231F20" stroke-linejoin="round"/>
<path d="M395.406 805.79L493.864 734.997L739.216 558.575C754.604 547.509 772.755 541.661 791.715 541.661C810.676 541.661 828.827 547.509 844.215 558.571L965.087 645.484C973.702 651.681 983.871 654.955 994.485 654.955C1005.1 654.955 1015.27 651.681 1023.89 645.484C1032.14 639.553 1036.87 630.33 1036.86 620.18C1036.86 610.03 1032.13 600.807 1023.88 594.876L844.147 465.637L714.321 372.286C700.077 362.043 691.907 346.113 691.907 328.578C691.907 311.043 700.077 295.113 714.321 284.87L844.147 191.516L933.377 127.358C938.992 123.323 942.345 116.785 942.345 109.874C942.345 102.962 938.992 96.428 933.377 92.3925L745.693 -42.5549L828.619 -102.186L1074.92 74.9151C1086.31 83.1117 1092.85 95.8536 1092.85 109.881C1092.85 123.908 1086.31 136.65 1074.92 144.846L932.935 246.939L843.705 311.097C838.09 315.136 834.737 321.671 834.737 328.582C834.737 335.493 838.09 342.027 843.705 346.063L1034.32 483.118L1176.3 585.211C1187.7 593.404 1194.23 606.149 1194.23 620.176C1194.23 634.204 1187.7 646.945 1176.3 655.142L1046.98 748.13C1031.59 759.195 1013.44 765.04 994.482 765.04C975.521 765.04 957.37 759.192 941.982 748.13L810.611 653.67C805.072 649.688 798.538 647.581 791.712 647.581C784.886 647.581 778.352 649.685 772.813 653.67L478.336 865.417L395.406 805.786V805.79Z" fill="#A3FFEC" stroke="#231F20" stroke-linejoin="round"/>
<path d="M904.615 229.329L826.225 285.696" stroke="black" stroke-linecap="round" stroke-linejoin="round"/>
<path d="M714.26 616.331L758.115 584.798C767.964 577.718 779.581 573.973 791.716 573.973C803.85 573.973 815.467 577.714 825.316 584.798L847.144 600.494" stroke="black" stroke-linecap="round" stroke-linejoin="round"/>
<path d="M1022.15 721.849C1013.88 727.795 1004.13 730.94 993.935 730.94C983.745 730.94 973.99 727.798 965.719 721.849L947.388 708.669" stroke="black" stroke-linecap="round" stroke-linejoin="round"/>
<path d="M1081.22 153.589L1040.62 182.781V275.546L1081.22 246.354C1096.16 235.608 1103.63 219.129 1103.63 202.646V109.881C1103.63 126.36 1096.16 142.843 1081.22 153.589Z" fill="#0067FE" stroke="#231F20" stroke-linejoin="round"/>
<path d="M708.024 381.029C690.091 368.132 681.124 348.357 681.124 328.582V421.344C681.124 441.119 690.091 460.898 708.024 473.79L736.466 494.244V401.479L708.024 381.025V381.029Z" fill="#0067FE" stroke="#231F20" stroke-linejoin="round"/>
<path d="M1182.6 663.888V756.653C1197.55 745.908 1205.02 729.428 1205.02 712.945V620.18C1205.02 636.659 1197.54 653.142 1182.6 663.888Z" fill="#0067FE" stroke="#231F20" stroke-linejoin="round"/>
<path d="M1182.6 663.888V756.65L1053.29 849.638V756.876L1182.6 663.888Z" fill="#0067FE" stroke="#231F20" stroke-linejoin="round"/>
<path d="M1053.29 849.638C1018.16 874.892 970.809 874.892 935.685 849.638V756.876C970.809 782.13 1018.16 782.13 1053.29 756.876V849.638Z" fill="#0067FE" stroke="#231F20" stroke-linejoin="round"/>
<path d="M804.314 662.412C800.55 659.705 796.133 658.355 791.715 658.355C787.298 658.355 782.88 659.709 779.117 662.412L749.133 683.972V776.734L779.117 755.174C782.88 752.467 787.298 751.117 791.715 751.117C796.133 751.117 800.55 752.47 804.314 755.174L834.298 776.734V683.972L804.314 662.412Z" fill="#0067FE" stroke="#231F20" stroke-linejoin="round"/>
<path d="M386.18 799.155V891.92L487.566 964.813V872.055L386.18 799.155Z" fill="#0067FE" stroke="#231F20" stroke-linejoin="round"/>
<path d="M866.478 73.023V80.0205L850.696 68.6716V61.6742L866.478 73.023Z" fill="white" stroke="#231F20" stroke-linejoin="round"/>
<path d="M873.602 83.9375C874.821 83.6157 875.417 81.8753 874.934 80.0504C874.451 78.2254 873.072 77.0069 871.853 77.3287C870.634 77.6506 870.038 79.3909 870.521 81.2159C871.004 83.0408 872.384 84.2594 873.602 83.9375Z" fill="white" stroke="#231F20" stroke-linejoin="round"/>
<path d="M765.095 437.525V444.522L749.312 433.174V426.176L765.095 437.525Z" fill="white" stroke="#231F20" stroke-linejoin="round"/>
<path d="M772.245 448.44C773.464 448.118 774.06 446.378 773.577 444.553C773.094 442.728 771.715 441.509 770.496 441.831C769.277 442.153 768.681 443.893 769.164 445.718C769.647 447.543 771.027 448.762 772.245 448.44Z" fill="white" stroke="#231F20" stroke-linejoin="round"/>
<path d="M866.478 510.422V517.419L850.696 506.07V499.073L866.478 510.422Z" fill="white" stroke="#231F20" stroke-linejoin="round"/>
<path d="M873.632 521.328C874.851 521.006 875.447 519.266 874.964 517.441C874.481 515.616 873.101 514.397 871.883 514.719C870.664 515.041 870.068 516.781 870.551 518.606C871.034 520.431 872.413 521.65 873.632 521.328Z" fill="white" stroke="#231F20" stroke-linejoin="round"/>
<path d="M862.931 720.018V727.012L847.144 715.663V708.666L862.931 720.018Z" fill="white" stroke="#231F20" stroke-linejoin="round"/>
<path d="M870.1 730.921C871.318 730.599 871.915 728.859 871.432 727.034C870.949 725.209 869.569 723.991 868.35 724.312C867.132 724.634 866.535 726.374 867.018 728.199C867.502 730.024 868.881 731.243 870.1 730.921Z" fill="white" stroke="#231F20" stroke-linejoin="round"/>
<path d="M1153.97 699.931V706.928L1169.75 695.576V688.578L1153.97 699.931Z" fill="white" stroke="#231F20" stroke-linejoin="round"/>
<path d="M1149.98 708.24C1150.46 706.415 1149.86 704.674 1148.64 704.352C1147.42 704.031 1146.05 705.249 1145.56 707.074C1145.08 708.899 1145.68 710.639 1146.89 710.961C1148.11 711.283 1149.49 710.065 1149.98 708.24Z" fill="white" stroke="#231F20" stroke-linejoin="round"/>
<path d="M720.504 720.018V727.012L736.287 715.663V708.666L720.504 720.018Z" fill="white" stroke="#231F20" stroke-linejoin="round"/>
<path d="M716.476 728.319C716.959 726.494 716.362 724.754 715.144 724.432C713.925 724.11 712.545 725.329 712.062 727.154C711.579 728.979 712.176 730.719 713.394 731.041C714.613 731.363 715.993 730.144 716.476 728.319Z" fill="white" stroke="#231F20" stroke-linejoin="round"/>
<path d="M619.117 792.919V799.912L634.9 788.563V781.566L619.117 792.919Z" fill="white" stroke="#231F20" stroke-linejoin="round"/>
<path d="M615.083 801.224C615.566 799.399 614.97 797.659 613.751 797.337C612.532 797.015 611.153 798.234 610.67 800.059C610.187 801.883 610.783 803.624 612.002 803.946C613.22 804.268 614.6 803.049 615.083 801.224Z" fill="white" stroke="#231F20" stroke-linejoin="round"/>
<path d="M552.693 768.508L520.484 745.347C516.375 742.393 510.836 742.393 506.728 745.347L464.904 775.423C461.64 777.767 461.64 782.618 464.904 784.966L497.113 808.127C501.221 811.082 506.76 811.082 510.869 808.127L552.693 778.051C555.957 775.707 555.957 770.856 552.693 768.508Z" fill="#AFFF00" stroke="#231F20" stroke-linejoin="round"/>
<path d="M503.993 803.413L471.701 780.195L513.608 750.061L545.896 773.28L503.993 803.413Z" fill="white" stroke="#231F20" stroke-linejoin="round"/>
<path d="M512.051 770.224C515.803 770.224 518.845 767.847 518.845 764.914C518.845 761.982 515.803 759.604 512.051 759.604C508.299 759.604 505.258 761.982 505.258 764.914C505.258 767.847 508.299 770.224 512.051 770.224Z" fill="#00EF5C" stroke="#231F20" stroke-linejoin="round"/>
<path d="M503.993 803.413L499.23 778.482L531.102 783.921L503.993 803.413Z" fill="#00EF5C" stroke="#231F20" stroke-linejoin="round"/>
<path d="M948.438 708.666L893.3 668.929C888.178 665.238 890.503 661.023 886.417 657.982C882.33 654.941 879.591 659.048 873.948 654.98L868.168 650.816" stroke="black" stroke-linecap="round" stroke-linejoin="round"/>
<path d="M1070.83 580.048L1015.7 540.311C1010.57 536.62 1012.9 532.405 1008.81 529.364C1004.73 526.323 1001.99 530.43 996.344 526.363L990.564 522.198" stroke="black" stroke-linecap="round" stroke-linejoin="round"/>
<path d="M588.32 743.132L643.458 703.395C648.58 699.704 646.255 695.489 650.341 692.448C654.428 689.407 657.167 693.515 662.81 689.447L668.59 685.282" stroke="black" stroke-linecap="round" stroke-linejoin="round"/>
<path d="M539.721 752.022L544.203 748.79C549.325 745.1 546.999 740.885 551.086 737.844C555.173 734.803 557.912 738.91 563.555 734.842L569.335 730.678" stroke="black" stroke-linecap="round" stroke-linejoin="round"/>
<path d="M1109.39 645.707L1115.52 641.287C1120.64 637.596 1118.32 633.381 1122.41 630.34C1126.49 627.299 1129.23 631.407 1134.87 627.339L1137.82 625.217" stroke="black" stroke-linecap="round" stroke-linejoin="round"/>
<path d="M1106.01 658.161L1131.15 640.045" stroke="black" stroke-linecap="round" stroke-linejoin="round"/>
<path d="M1009.23 691.917L1033.67 674.303" stroke="black" stroke-linecap="round" stroke-linejoin="round"/>
<path d="M741.973 606.321L766.415 588.704" stroke="black" stroke-linecap="round" stroke-linejoin="round"/>
<path d="M694.444 678.604L657.821 652.27L705.35 618.094L741.973 644.429L694.444 678.604Z" fill="#AFFF00" stroke="#231F20" stroke-linejoin="round"/>
<path d="M663.475 648.206L694.445 670.472L736.319 640.364L705.35 618.094L663.475 648.206Z" fill="#231F20" stroke="#231F20" stroke-linejoin="round"/>
<path d="M694.444 664.696L657.821 638.361L705.35 604.189L741.973 630.523L694.444 664.696Z" fill="#00EF5C" stroke="#231F20" stroke-linejoin="round"/>
<path d="M663.475 634.297L694.445 656.567L736.319 626.456L705.35 604.189L663.475 634.297Z" fill="#231F20" stroke="#231F20" stroke-linejoin="round"/>
<path d="M692.324 599.647L657.821 624.456L694.444 650.791L741.973 616.615L718.376 599.647H692.324Z" fill="#AFFF00" stroke="#231F20" stroke-linejoin="round"/>
<path d="M705.35 609.014L718.376 599.647H692.324L705.35 609.014Z" fill="white" stroke="#231F20" stroke-linejoin="round"/>
<path d="M631.726 682.105L594.769 708.68L557.808 682.105L594.769 655.53L631.726 682.105Z" fill="#00EF5C" stroke="#231F20" stroke-linejoin="round"/>
<path d="M557.808 682.105V723.791L594.769 750.367V708.68L557.808 682.105Z" fill="white" stroke="#231F20" stroke-linejoin="round"/>
<path d="M631.726 682.105V723.791L594.769 750.367V708.68L631.726 682.105Z" fill="#231F20" stroke="#231F20" stroke-linejoin="round"/>
<path d="M557.808 682.105H631.726" stroke="#231F20" stroke-linejoin="round"/>
<path d="M594.769 655.53V708.68" stroke="#231F20" stroke-linejoin="round"/>
<path d="M775.548 291.642V307.195L780.954 319.811L788.29 321.387L775.548 291.642Z" fill="white" stroke="#001E2C" stroke-linecap="round" stroke-linejoin="round"/>
<path d="M787.722 282.993L809.871 330.061L800.497 336.721L734.202 321.017L746.347 312.386L788.287 321.387L775.544 291.645L787.719 282.996L787.722 282.993Z" fill="#00EF5C" stroke="#231F20" stroke-linejoin="round"/>
<path d="M734.206 321.017V336.57L800.5 352.274V336.721L734.206 321.017Z" fill="white" stroke="#001E2C" stroke-linecap="round" stroke-linejoin="round"/>
<path d="M809.871 330.061L800.5 336.721V352.274L809.871 345.614V330.061Z" fill="black" stroke="#231F20" stroke-linejoin="round"/>
<path d="M668.586 773.976V807.613L705.35 781.178V747.541L668.586 773.976Z" fill="#A3FFEC" stroke="#231F20" stroke-linejoin="round"/>
<path d="M668.586 773.976L705.35 781.178" stroke="#231F20" stroke-linejoin="round"/>
<path d="M705.35 747.541L668.586 807.613" stroke="#231F20" stroke-linejoin="round"/>
<path d="M1127.16 762.825V782.331L1148.47 767.004V747.502L1127.16 762.825Z" fill="#A3FFEC" stroke="#231F20" stroke-linejoin="round"/>
<path d="M1127.16 762.825L1148.47 767.004" stroke="#231F20" stroke-linejoin="round"/>
<path d="M1148.47 747.502L1127.16 782.331" stroke="#231F20" stroke-linejoin="round"/>
<path d="M948.588 303.227V325.537L972.969 308.006V285.696L948.588 303.227Z" fill="#A3FFEC" stroke="#231F20" stroke-linejoin="round"/>
<path d="M948.588 303.227L972.969 308.006" stroke="#231F20" stroke-linejoin="round"/>
<path d="M948.588 325.537L972.969 285.696" stroke="#231F20" stroke-linejoin="round"/>
<path d="M974.547 648.776L937.586 675.351L900.625 648.776L937.586 622.201L974.547 648.776Z" fill="#AFFF00" stroke="#231F20" stroke-linejoin="round"/>
<path d="M900.625 648.776V690.463L937.586 717.038V675.351L900.625 648.776Z" fill="white" stroke="#231F20" stroke-linejoin="round"/>
<path d="M974.547 648.776V690.463L937.586 717.038V675.351L974.547 648.776Z" fill="#231F20" stroke="#231F20" stroke-linejoin="round"/>
<path d="M900.625 648.776H974.547" stroke="#231F20" stroke-linejoin="round"/>
<path d="M937.586 622.201V675.351" stroke="#231F20" stroke-linejoin="round"/>
<path d="M1111.69 662.243L1079.48 639.083C1075.37 636.128 1069.83 636.128 1065.73 639.083L1023.9 669.158C1020.64 671.503 1020.64 676.353 1023.9 678.701L1056.11 701.862C1060.22 704.817 1065.76 704.817 1069.87 701.862L1111.69 671.786C1114.95 669.442 1114.95 664.591 1111.69 662.243Z" fill="#00EF5C" stroke="#231F20" stroke-linejoin="round"/>
<path d="M1062.99 697.148L1030.7 673.93L1072.6 643.797L1104.89 667.015L1062.99 697.148Z" fill="white" stroke="#231F20" stroke-linejoin="round"/>
<path d="M1071.05 663.96C1074.8 663.96 1077.84 661.582 1077.84 658.65C1077.84 655.717 1074.8 653.34 1071.05 653.34C1067.29 653.34 1064.25 655.717 1064.25 658.65C1064.25 661.582 1067.29 663.96 1071.05 663.96Z" fill="#AFFF00" stroke="#231F20" stroke-linejoin="round"/>
<path d="M1062.99 697.148L1058.23 672.217L1090.1 677.656L1062.99 697.148Z" fill="#AFFF00" stroke="#231F20" stroke-linejoin="round"/>
<path d="M813.249 393.656L792.1 378.411C786.978 374.72 789.304 370.505 785.217 367.465C781.13 364.424 778.391 368.531 772.748 364.463L766.968 360.298" stroke="black" stroke-linecap="round" stroke-linejoin="round"/>
<path d="M787.499 270.714L797.74 263.332C802.862 259.642 800.536 255.427 804.623 252.386C808.71 249.345 811.449 253.452 817.092 249.384L822.872 245.219" stroke="black" stroke-linecap="round" stroke-linejoin="round"/>
<path d="M960.641 126.996L992.706 103.885" stroke="black" stroke-linecap="round" stroke-linejoin="round"/>
<path d="M970.802 38.0466L960.561 30.665C955.439 26.9742 957.765 22.7593 953.678 19.7183C949.591 16.6773 946.852 20.7846 941.209 16.7168L935.429 12.5521" stroke="black" stroke-linecap="round" stroke-linejoin="round"/>
<path d="M855.796 4.74694L845.556 -2.63465C840.434 -6.32545 842.759 -10.5404 838.672 -13.5814C834.586 -16.6223 831.847 -12.5151 826.204 -16.5828L820.424 -20.7476" stroke="black" stroke-linecap="round" stroke-linejoin="round"/>
<path d="M943.83 222.353L954.07 214.971C959.192 211.281 956.866 207.066 960.953 204.025C965.04 200.984 967.779 205.091 973.422 201.023L1000.66 181.392" stroke="black" stroke-linecap="round" stroke-linejoin="round"/>
<path d="M944.761 143.644L933.097 151.88V169.702H944.761V143.644Z" fill="white" stroke="black" stroke-linecap="round" stroke-linejoin="round"/>
<path d="M1018.86 138.258V154.317L1007.25 162.518V146.458L1018.86 138.258Z" fill="#231F20" stroke="black" stroke-linecap="round" stroke-linejoin="round"/>
<path d="M933.097 151.88L944.757 143.644C948.319 146.114 952.021 147.252 955.86 147.058C959.699 146.864 965.213 144.229 972.405 139.149C977.879 135.282 982.139 132.56 985.183 130.984C988.227 129.405 991.419 128.536 994.755 128.378C998.09 128.22 1001.39 128.726 1004.64 129.904C1007.9 131.081 1011.78 133.261 1016.28 136.438L1018.86 138.255L1007.24 146.455C1002.54 143.137 999.248 141.497 997.354 141.533C995.459 141.568 993.069 142.556 990.186 144.502C982.218 149.855 976.912 153.244 974.274 154.673C971.632 156.102 968.692 157.172 965.453 157.883C962.215 158.59 958.099 158.558 953.11 157.778C954.243 161.049 954.253 164.004 953.136 166.646C952.018 169.289 949.29 172.301 944.948 175.687L931.537 186.185C930.469 187.352 930.135 188.569 930.541 189.84C930.947 191.107 933.126 193.139 937.076 195.929L925.416 204.165L922.889 202.38C917.706 198.722 914.295 195.48 912.659 192.654C911.024 189.829 910.92 187.021 912.343 184.232C913.77 181.442 917.476 177.931 923.471 173.698C930.081 169.03 934.078 165.885 935.473 164.263C936.864 162.64 937.683 160.827 937.928 158.823C938.169 156.823 936.558 154.504 933.093 151.876L933.097 151.88Z" fill="white" stroke="black" stroke-linecap="round" stroke-linejoin="round"/>
<path d="M997.361 141.533C995.467 141.568 993.076 142.556 990.194 144.502C982.225 149.855 976.92 153.244 974.281 154.673C971.64 156.102 968.699 157.172 965.461 157.883C962.222 158.59 958.107 158.558 953.118 157.779C954.25 161.049 954.261 164.004 953.143 166.646C953.136 166.664 953.125 166.682 953.118 166.7V173.838C958.107 174.617 962.219 174.649 965.461 173.942C968.699 173.235 971.64 172.165 974.281 170.732C976.92 169.303 982.225 165.91 990.194 160.561C993.076 158.615 995.467 157.628 997.361 157.592C999.255 157.556 1002.55 159.197 1007.25 162.514V146.455C1002.55 143.137 999.255 141.497 997.361 141.533Z" fill="#231F20" stroke="black" stroke-linecap="round" stroke-linejoin="round"/>
<path d="M933.097 151.88L944.757 143.644C948.319 146.114 952.021 147.252 955.86 147.058C959.699 146.864 965.213 144.229 972.405 139.149C977.879 135.282 982.139 132.56 985.183 130.984C988.227 129.405 991.419 128.536 994.755 128.378C998.09 128.22 1001.39 128.726 1004.64 129.904C1007.9 131.081 1011.78 133.261 1016.28 136.438L1018.86 138.255L1007.24 146.455C1002.54 143.137 999.248 141.497 997.354 141.533C995.459 141.568 993.069 142.556 990.186 144.502C982.218 149.855 976.912 153.244 974.274 154.673C971.632 156.102 968.692 157.172 965.453 157.883C962.215 158.59 958.099 158.558 953.11 157.778C954.243 161.049 954.253 164.004 953.136 166.646C952.018 169.289 949.29 172.301 944.948 175.687L931.537 186.185C930.469 187.352 930.135 188.569 930.541 189.84C930.947 191.107 933.126 193.139 937.076 195.929L925.416 204.165L922.889 202.38C917.706 198.722 914.295 195.48 912.659 192.654C911.024 189.829 910.92 187.021 912.343 184.232C913.77 181.442 917.476 177.931 923.471 173.698C930.081 169.03 934.078 165.885 935.473 164.263C936.864 162.64 937.683 160.827 937.928 158.823C938.169 156.823 936.558 154.504 933.093 151.876L933.097 151.88Z" fill="#00EF5C" stroke="#231F20" stroke-linejoin="round"/>
<path d="M937.083 195.932V211.992L925.419 220.228V204.168L937.083 195.932Z" fill="#231F20" stroke="black" stroke-linecap="round" stroke-linejoin="round"/>
<path d="M953.973 178.577V162.518C953.969 163.972 953.693 165.347 953.143 166.65C952.025 169.293 949.297 172.305 944.955 175.69L931.544 186.188C930.476 187.355 930.142 188.572 930.548 189.843C930.955 191.114 933.133 193.143 937.083 195.932V197.911L944.955 191.75C949.297 188.364 952.025 185.352 953.143 182.709C953.7 181.388 953.98 179.988 953.973 178.512V178.581V178.577Z" fill="#231F20" stroke="black" stroke-linecap="round" stroke-linejoin="round"/>
<path d="M911.376 187.628V187.636C911.376 187.636 911.376 187.632 911.376 187.628Z" stroke="black" stroke-linecap="round" stroke-linejoin="round"/>
<path d="M911.355 204.168C911.347 205.68 911.786 207.195 912.667 208.717C914.302 211.543 917.713 214.785 922.896 218.443L925.423 220.228V204.168L922.896 202.384C917.713 198.726 914.302 195.484 912.667 192.658C911.887 191.312 911.459 189.969 911.376 188.633L911.358 204.168H911.355Z" fill="white" stroke="black" stroke-linecap="round" stroke-linejoin="round"/>
<path d="M1018.01 47.0941V62.6472L1005.87 71.2746V55.7215L1018.01 47.0941Z" fill="black" stroke="#231F20" stroke-linejoin="round"/>
<path d="M964.497 85.1186L942.349 38.0502L951.723 31.3903L1018.02 47.0941L1005.87 55.7251L963.933 46.7243L976.675 76.4661L964.501 85.115L964.497 85.1186Z" fill="#AFFF00" stroke="#231F20" stroke-linejoin="round"/>
<path d="M942.349 38.0466V53.5997L964.497 100.672V85.1186L942.349 38.0466Z" fill="white" stroke="#001E2C" stroke-linecap="round" stroke-linejoin="round"/>
<path d="M963.929 46.7242L1005.87 55.7215V71.2745L971.269 63.8498L963.929 46.7242Z" fill="black" stroke="#231F20" stroke-linejoin="round"/>
<path d="M976.675 76.4661V92.0191L964.497 100.672V85.1186L976.675 76.4661Z" fill="black" stroke="#231F20" stroke-linejoin="round"/>
<path d="M899.694 -42.3252L921.843 4.74323L912.469 11.4032L846.174 -4.30066L858.319 -12.9317L900.258 -3.93087L887.516 -33.6727L899.691 -42.3216L899.694 -42.3252Z" fill="#00EF5C" stroke="#231F20" stroke-linejoin="round"/>
<path d="M846.177 -4.30066V11.2524L912.469 26.9562V11.4032L846.177 -4.30066Z" fill="white" stroke="#001E2C" stroke-linecap="round" stroke-linejoin="round"/>
<path d="M921.843 4.74683L912.469 11.4032V26.9562L921.843 20.2999V4.74683Z" fill="black" stroke="#231F20" stroke-linejoin="round"/>
<path d="M825.643 366.556L816.962 360.298" stroke="black" stroke-linecap="round" stroke-linejoin="round"/>
<path d="M1115.96 591.547L1107.28 585.29" stroke="black" stroke-linecap="round" stroke-linejoin="round"/>
<path d="M1125.07 604.189L1106.55 590.84" stroke="black" stroke-linecap="round" stroke-linejoin="round"/>
<path d="M980.277 526.291L808.965 403.023V453.527L980.277 576.795V526.291Z" fill="#AFFF00" stroke="#231F20" stroke-linejoin="round"/>
<path d="M1006.77 468.358L835.459 345.094L808.965 403.023L980.277 526.291L1006.77 468.358Z" fill="#AFFF00" stroke="#231F20" stroke-linejoin="round"/>
<path d="M1072.43 421.146L1006.77 468.358L980.277 526.359V576.795L989.507 570.157V530.391L1014.15 476.512L1072.43 434.606V510.529L1081.66 503.895V427.968V414.511L1072.43 421.146Z" fill="#231F20" stroke="#231F20" stroke-linejoin="round"/>
<path d="M943.98 443.532L863.348 385.513L850.861 412.813L931.494 470.832L943.98 443.532Z" fill="white" stroke="#231F20" stroke-linejoin="round"/>
<path d="M937.737 457.182L857.104 399.163" stroke="#231F20" stroke-linejoin="round"/>
<path d="M903.662 414.522L891.176 441.823" stroke="#231F20" stroke-linejoin="round"/>
<path d="M917.102 424.191L904.615 451.495" stroke="#231F20" stroke-linejoin="round"/>
<path d="M930.541 433.863L918.054 461.163" stroke="#231F20" stroke-linejoin="round"/>
<path d="M890.223 404.854L877.736 432.154" stroke="#231F20" stroke-linejoin="round"/>
<path d="M876.787 395.181L864.3 422.485" stroke="#231F20" stroke-linejoin="round"/>
<path d="M978.16 476.908C979.207 468.068 973.542 460.133 965.507 459.183C957.472 458.233 950.109 464.628 949.061 473.468C948.014 482.307 953.679 490.243 961.714 491.193C969.749 492.143 977.112 485.747 978.16 476.908Z" fill="white" stroke="#231F20" stroke-linejoin="round"/>
<path d="M849.917 377.577C850.345 373.966 848.029 370.723 844.745 370.335C841.461 369.947 838.452 372.56 838.024 376.171C837.596 379.782 839.911 383.025 843.195 383.413C846.48 383.801 849.489 381.188 849.917 377.577Z" fill="white" stroke="#231F20" stroke-linejoin="round"/>
<path d="M839.592 397.139C840.02 393.528 837.705 390.285 834.42 389.897C831.136 389.509 828.127 392.122 827.699 395.733C827.271 399.344 829.586 402.587 832.871 402.975C836.155 403.363 839.164 400.75 839.592 397.139Z" fill="white" stroke="#231F20" stroke-linejoin="round"/>
<path d="M972.969 470.832L963.613 475.198L958.045 471.32" stroke="#231F20" stroke-linejoin="round"/>
<path d="M835.459 345.094L910.348 291.243L1081.66 414.511L1006.77 468.358L835.459 345.094Z" fill="#00EF5C" stroke="#231F20" stroke-linejoin="round"/>
<path d="M891.176 357.469L931.35 328.582L926.605 354.066L891.176 357.469Z" fill="white" stroke="#231F20" stroke-linejoin="round"/>
<path d="M932.072 386.665L972.247 357.781L967.502 383.265L932.072 386.665Z" fill="white" stroke="#231F20" stroke-linejoin="round"/>
<path d="M972.969 415.865L1013.14 386.981L1008.4 412.461L972.969 415.865Z" fill="white" stroke="#231F20" stroke-linejoin="round"/>
<path d="M1072.43 510.529L1019.64 472.566L1072.43 434.606V510.529Z" fill="white" stroke="#231F20" stroke-linejoin="round"/>
<path d="M1073.93 514.508V556.194L1110.89 582.769V541.083L1073.93 514.508Z" fill="white" stroke="#001E2C" stroke-linecap="round" stroke-linejoin="round"/>
<path d="M1073.93 514.508V556.194L1036.97 582.769V541.083L1073.93 514.508Z" fill="#231F20" stroke="#231F20" stroke-linejoin="round"/>
<path d="M1110.89 582.769L1073.93 609.344L1036.97 582.769L1073.93 556.194L1110.89 582.769Z" fill="#AFFF00" stroke="#231F20" stroke-linejoin="round"/>
<path d="M1036.97 541.083V582.769L1073.93 609.345V567.658L1036.97 541.083Z" fill="white" stroke="#001E2C" stroke-linecap="round" stroke-linejoin="round"/>
<path d="M1110.89 541.083V582.769L1073.93 609.345V567.658L1110.89 541.083Z" fill="#231F20" stroke="#231F20" stroke-linejoin="round"/>
<path d="M1022.26 520.471L1059.22 493.896L1073.93 514.507L1036.97 541.083L1022.26 520.471Z" fill="#AFFF00" stroke="#231F20" stroke-linejoin="round"/>
<path d="M1073.93 567.658L1110.89 541.083L1131.46 540.009L1094.5 566.588L1073.93 567.658Z" fill="#AFFF00" stroke="#231F20" stroke-linejoin="round"/>
<path d="M851.806 44.8036C852.532 44.0783 851.821 42.1934 850.217 40.5958C848.614 38.9981 846.727 38.2872 846.001 39.0089L603.722 277.108L613.431 286.806L851.803 44.8036H851.806Z" fill="#E9FF93" stroke="#231F20" stroke-linejoin="round"/>
<path d="M788.261 109.303C788.987 108.577 788.045 106.463 786.158 104.578C784.271 102.693 782.154 101.752 781.428 102.478" stroke="#231F20" stroke-linecap="round" stroke-linejoin="round"/>
<path d="M724.723 173.813C725.449 173.087 724.274 170.739 722.1 168.567C719.925 166.395 717.574 165.221 716.848 165.946" stroke="#231F20" stroke-linecap="round" stroke-linejoin="round"/>
<path d="M652.027 229.652C653.016 228.665 655.816 229.857 658.278 232.316C660.74 234.775 661.933 237.569 660.945 238.56" stroke="#231F20" stroke-linecap="round" stroke-linejoin="round"/>
<path d="M854.304 47.2988C854.304 52.8063 851.048 77.5468 829.783 98.7905C815.187 113.371 795.579 116.613 788.265 109.306C793.552 124.716 789.674 145.302 775.077 159.882C760.48 174.463 740.15 179.094 724.723 173.813C730.011 189.222 725.374 209.529 710.777 224.109C696.18 238.689 676.372 243.841 660.945 238.56" stroke="#231F20" stroke-linecap="round" stroke-linejoin="round"/>
<path d="M851.806 44.8036L853.071 46.0674" stroke="#231F20" stroke-linecap="round" stroke-linejoin="round"/>
<path d="M855.536 48.5288C855.825 48.24 855.507 47.4546 854.827 46.7746C854.146 46.0945 853.36 45.7774 853.07 46.0662C852.781 46.3551 853.099 47.1405 853.78 47.8205C854.46 48.5005 855.247 48.8176 855.536 48.5288Z" stroke="#231F20" stroke-linecap="round" stroke-linejoin="round"/>
<path d="M658.278 250.368C668.259 250.368 676.35 242.286 676.35 232.316C676.35 222.346 668.259 214.264 658.278 214.264C648.296 214.264 640.205 222.346 640.205 232.316C640.205 242.286 648.296 250.368 658.278 250.368Z" fill="#00EF5C" stroke="#231F20" stroke-linejoin="round"/>
<path d="M658.278 240.089C662.575 240.089 666.06 236.609 666.06 232.316C666.06 228.023 662.575 224.543 658.278 224.543C653.98 224.543 650.496 228.023 650.496 232.316C650.496 236.609 653.98 240.089 658.278 240.089Z" fill="#231F20" stroke="black" stroke-linecap="round" stroke-linejoin="round"/>
<path d="M662.408 234.122C663.407 231.842 662.368 229.185 660.086 228.187L623.793 212.3L620.174 220.554L656.466 236.441C658.748 237.439 661.408 236.402 662.408 234.122Z" fill="#E9FF93" stroke="#231F20" stroke-linejoin="round"/>
<path d="M621.985 222.644C625.423 222.644 628.211 219.86 628.211 216.426C628.211 212.991 625.423 210.207 621.985 210.207C618.547 210.207 615.76 212.991 615.76 216.426C615.76 219.86 618.547 222.644 621.985 222.644Z" fill="#00EF5C" stroke="#231F20" stroke-linejoin="round"/>
<path d="M621.985 219.025C623.422 219.025 624.587 217.861 624.587 216.426C624.587 214.99 623.422 213.826 621.985 213.826C620.548 213.826 619.383 214.99 619.383 216.426C619.383 217.861 620.548 219.025 621.985 219.025Z" fill="white" stroke="#231F20" stroke-linecap="round" stroke-linejoin="round"/>
<path d="M658.278 234.513C659.493 234.513 660.477 233.53 660.477 232.316C660.477 231.103 659.493 230.119 658.278 230.119C657.063 230.119 656.078 231.103 656.078 232.316C656.078 233.53 657.063 234.513 658.278 234.513Z" fill="white" stroke="#231F20" stroke-linecap="round" stroke-linejoin="round"/>
<path d="M659.162 230.302L657.397 234.327" stroke="#231F20" stroke-linecap="round" stroke-linejoin="round"/>
<path d="M660.291 233.196L656.265 231.433" stroke="#231F20" stroke-linecap="round" stroke-linejoin="round"/>
<path d="M623.028 214.045L620.939 218.809" stroke="#231F20" stroke-linecap="round" stroke-linejoin="round"/>
<path d="M619.602 215.384L624.368 217.47" stroke="#231F20" stroke-linecap="round" stroke-linejoin="round"/>
<path d="M501.211 381.61H724.54L735.352 358.589H490.399L501.211 381.61Z" fill="black" stroke="#231F20" stroke-linejoin="round"/>
<path d="M490.399 358.589C492.555 335.744 511.803 317.865 535.242 317.865C537.751 317.865 540.21 318.08 542.607 318.475C542.492 316.892 542.431 315.294 542.431 313.679C542.431 277.514 571.783 248.196 607.989 248.196C641.7 248.196 669.463 273.611 673.133 306.308C675.315 306.049 677.536 305.909 679.786 305.909C709.541 305.909 733.842 329.243 735.348 358.589H490.399Z" fill="white" stroke="#231F20" stroke-linejoin="round"/>
<path d="M855.742 182.749V170.003H852.867V182.749C852.867 184.655 853.711 186.368 855.041 187.542C855.128 186.325 855.53 185.226 856.145 184.379C855.89 183.89 855.742 183.338 855.742 182.749Z" fill="#E9FF93" stroke="#231F20" stroke-linejoin="round"/>
<path d="M848.561 161.458V168.352C848.561 170.255 851.131 171.798 854.304 171.798C857.478 171.798 860.048 170.255 860.048 168.352V161.458H848.561Z" fill="#E9FF93" stroke="#231F20" stroke-linejoin="round"/>
<path d="M854.304 164.905C857.477 164.905 860.048 163.362 860.048 161.458C860.048 159.555 857.477 158.012 854.304 158.012C851.132 158.012 848.561 159.555 848.561 161.458C848.561 163.362 851.132 164.905 854.304 164.905Z" fill="#00EF5C" stroke="#231F20" stroke-linejoin="round"/>
<path d="M854.304 47.8229V161.196" stroke="#231F20" stroke-linecap="round" stroke-linejoin="round"/>
<path d="M862.388 219.312L822.135 213.155C818.059 212.53 812.947 216.264 812.081 220.5L800.982 274.796C799.893 280.128 802.617 284.253 807.75 285.039L848.003 291.196C852.079 291.821 857.191 288.087 858.057 283.851L869.156 229.555C870.245 224.223 867.521 220.098 862.388 219.312Z" fill="#231F20" stroke="black" stroke-linecap="round" stroke-linejoin="round"/>
<path d="M893.587 219.718L865.156 180.268C862.277 176.272 856.321 176.272 853.442 180.268L816.52 231.498C812.894 236.527 812.894 243.313 816.52 248.343L844.952 287.793C847.831 291.789 853.787 291.789 856.666 287.793L893.587 236.563C897.214 231.533 897.214 224.748 893.587 219.718ZM859.24 193.408C856.91 193.408 855.02 190.999 855.02 188.027C855.02 185.054 856.91 182.645 859.24 182.645C861.569 182.645 863.459 185.054 863.459 188.027C863.459 190.999 861.569 193.408 859.24 193.408Z" fill="#AFFF00" stroke="#231F20" stroke-linejoin="round"/>
<path d="M868.053 206.247L876.334 217.74L858.564 242.397C857.575 243.765 855.537 243.765 854.549 242.397L849.98 236.061C848.96 234.646 848.96 232.736 849.98 231.318L868.049 206.247H868.053Z" fill="white" stroke="#001E2C" stroke-linecap="round" stroke-linejoin="round"/>
<path d="M844.603 257.969C848.19 257.969 851.098 254.259 851.098 249.682C851.098 245.106 848.19 241.396 844.603 241.396C841.016 241.396 838.108 245.106 838.108 249.682C838.108 254.259 841.016 257.969 844.603 257.969Z" fill="white" stroke="#001E2C" stroke-linecap="round" stroke-linejoin="round"/>
<path d="M862.82 174.71V182.749C862.82 183.363 862.661 183.941 862.385 184.443C861.784 185.538 860.62 186.282 859.283 186.282C857.946 186.282 856.738 185.506 856.148 184.379C855.534 185.226 855.128 186.325 855.045 187.542C856.177 188.544 857.658 189.154 859.286 189.154C860.915 189.154 862.327 188.572 863.449 187.614C864.825 186.436 865.699 184.695 865.699 182.749V174.71H862.823H862.82Z" fill="#E9FF93" stroke="#231F20" stroke-linejoin="round"/>
<path d="M864.257 175.572C865.051 175.572 865.695 175.186 865.695 174.71C865.695 174.234 865.051 173.849 864.257 173.849C863.463 173.849 862.82 174.234 862.82 174.71C862.82 175.186 863.463 175.572 864.257 175.572Z" fill="#00EF5C" stroke="#231F20" stroke-linejoin="round"/>
<path d="M1030.23 77.2416L1053.26 93.8573C1058.56 97.6702 1061.48 103.361 1061.48 109.884C1061.48 116.408 1058.56 122.098 1053.26 125.911L1018.86 150.645" stroke="black" stroke-linecap="round" stroke-linejoin="round"/>
<path d="M998.788 -38.5302C998.062 -39.2554 998.773 -41.1403 1000.38 -42.738C1001.98 -44.3356 1003.87 -45.0465 1004.59 -44.3249L1246.87 193.775L1237.16 203.472L998.788 -38.5302Z" fill="#E9FF93" stroke="#231F20" stroke-linejoin="round"/>
<path d="M1062.33 25.9726C1061.61 25.2474 1062.55 23.1327 1064.44 21.2478C1066.32 19.3629 1068.44 18.4223 1069.17 19.1475" stroke="#231F20" stroke-linecap="round" stroke-linejoin="round"/>
<path d="M1125.87 90.4789C1125.14 89.7537 1126.32 87.4056 1128.49 85.2335C1130.67 83.0614 1133.02 81.8874 1133.75 82.6126" stroke="#231F20" stroke-linecap="round" stroke-linejoin="round"/>
<path d="M1198.57 146.318C1197.58 145.331 1194.78 146.523 1192.32 148.982C1189.85 151.442 1188.66 154.235 1189.65 155.226" stroke="#231F20" stroke-linecap="round" stroke-linejoin="round"/>
<path d="M996.29 -36.0349C996.29 -30.5274 999.546 -5.7869 1020.81 15.4567C1035.41 30.0368 1055.01 33.2788 1062.33 25.9726C1057.04 41.382 1060.92 61.9687 1075.52 76.5487C1090.11 91.1288 1110.44 95.7603 1125.87 90.479C1120.58 105.888 1125.22 126.195 1139.82 140.775C1154.41 155.355 1174.22 160.507 1189.65 155.226" stroke="#231F20" stroke-linecap="round" stroke-linejoin="round"/>
<path d="M1192.32 167.034C1202.3 167.034 1210.39 158.952 1210.39 148.982C1210.39 139.013 1202.3 130.931 1192.32 130.931C1182.34 130.931 1174.24 139.013 1174.24 148.982C1174.24 158.952 1182.34 167.034 1192.32 167.034Z" fill="#00EF5C" stroke="#231F20" stroke-linejoin="round"/>
<path d="M1192.32 156.755C1196.61 156.755 1200.1 153.275 1200.1 148.982C1200.1 144.69 1196.61 141.209 1192.32 141.209C1188.02 141.209 1184.53 144.69 1184.53 148.982C1184.53 153.275 1188.02 156.755 1192.32 156.755Z" fill="black" stroke="#231F20" stroke-linejoin="round"/>
<path d="M1188.19 150.792C1187.19 148.512 1188.23 145.855 1190.51 144.857L1226.8 128.97L1230.42 137.224L1194.13 153.111C1191.85 154.109 1189.19 153.072 1188.19 150.792Z" fill="#E9FF93" stroke="#231F20" stroke-linejoin="round"/>
<path d="M1228.61 139.314C1232.05 139.314 1234.83 136.53 1234.83 133.095C1234.83 129.661 1232.05 126.877 1228.61 126.877C1225.17 126.877 1222.38 129.661 1222.38 133.095C1222.38 136.53 1225.17 139.314 1228.61 139.314Z" fill="#00EF5C" stroke="#231F20" stroke-linejoin="round"/>
<path d="M1228.61 135.695C1230.05 135.695 1231.21 134.531 1231.21 133.095C1231.21 131.66 1230.05 130.496 1228.61 130.496C1227.17 130.496 1226.01 131.66 1226.01 133.095C1226.01 134.531 1227.17 135.695 1228.61 135.695Z" fill="white" stroke="#231F20" stroke-linecap="round" stroke-linejoin="round"/>
<path d="M1192.32 151.18C1193.53 151.18 1194.52 150.196 1194.52 148.982C1194.52 147.769 1193.53 146.785 1192.32 146.785C1191.1 146.785 1190.12 147.769 1190.12 148.982C1190.12 150.196 1191.1 151.18 1192.32 151.18Z" fill="white" stroke="#231F20" stroke-linecap="round" stroke-linejoin="round"/>
<path d="M1191.43 146.972L1193.2 150.993" stroke="#231F20" stroke-linecap="round" stroke-linejoin="round"/>
<path d="M1190.3 149.866L1194.33 148.099" stroke="#231F20" stroke-linecap="round" stroke-linejoin="round"/>
<path d="M1227.57 130.711L1229.65 135.476" stroke="#231F20" stroke-linecap="round" stroke-linejoin="round"/>
<path d="M1231 132.051L1226.23 134.137" stroke="#231F20" stroke-linecap="round" stroke-linejoin="round"/>
<path d="M991.315 105.82C994.852 105.82 997.727 102.948 997.727 99.4151V86.6697H994.852V99.4151C994.852 101.365 993.263 102.948 991.315 102.948C989.367 102.948 987.778 101.361 987.778 99.4151V94.2487H984.903V99.4151C984.903 102.948 987.778 105.82 991.315 105.82Z" fill="#E9FF93" stroke="#231F20" stroke-linejoin="round"/>
<path d="M1002.03 78.1249V85.0182C1002.03 86.921 999.463 88.4648 996.289 88.4648C993.116 88.4648 990.546 86.921 990.546 85.0182V78.1249H1002.03Z" fill="#E9FF93" stroke="#231F20" stroke-linejoin="round"/>
<path d="M996.289 81.5715C999.462 81.5715 1002.03 80.0284 1002.03 78.1249C1002.03 76.2213 999.462 74.6782 996.289 74.6782C993.117 74.6782 990.546 76.2213 990.546 78.1249C990.546 80.0284 993.117 81.5715 996.289 81.5715Z" fill="#00EF5C" stroke="#231F20" stroke-linejoin="round"/>
<path d="M996.29 -35.5107V77.8627" stroke="#231F20" stroke-linecap="round" stroke-linejoin="round"/>
<path d="M986.337 95.1104C987.131 95.1104 987.774 94.7246 987.774 94.2487C987.774 93.7729 987.131 93.3871 986.337 93.3871C985.543 93.3871 984.899 93.7729 984.899 94.2487C984.899 94.7246 985.543 95.1104 986.337 95.1104Z" fill="#00EF5C" stroke="#231F20" stroke-linejoin="round"/>
<path d="M1351.65 281.959C1351.76 280.691 1351.82 279.406 1351.82 278.11C1351.82 253.147 1331.56 232.912 1306.57 232.912C1302.66 232.912 1298.87 233.407 1295.26 234.337C1293.75 199.731 1265.19 172.132 1230.18 172.132C1198.25 172.132 1171.69 195.074 1166.11 225.354C1160.6 223.531 1154.71 222.54 1148.59 222.54C1117.86 222.54 1092.95 247.42 1092.95 278.113C1092.95 279.41 1093 280.691 1093.09 281.962H1351.65V281.959Z" fill="white" stroke="#231F20" stroke-linejoin="round"/>
<path d="M1341.01 304.983H1103.9L1093.09 281.959H1351.82L1341.01 304.983Z" fill="black" stroke="#231F20" stroke-linejoin="round"/>
<path d="M793.469 566.911V615.685C793.469 626.685 807.876 635.6 825.643 635.6C843.41 635.6 857.816 626.682 857.816 615.685V566.911H793.469Z" fill="white" stroke="#231F20" stroke-linejoin="round"/>
<path d="M836.559 566.911V634.419C848.952 631.651 857.816 624.312 857.816 615.685V566.911H836.559Z" fill="#231F20" stroke="#231F20" stroke-linejoin="round"/>
<path d="M825.643 586.826C843.412 586.826 857.816 577.91 857.816 566.911C857.816 555.912 843.412 546.996 825.643 546.996C807.874 546.996 793.469 555.912 793.469 566.911C793.469 577.91 807.874 586.826 825.643 586.826Z" fill="#00EF5C" stroke="#231F20" stroke-linejoin="round"/>
<path d="M793.469 566.911H857.816" stroke="#231F20" stroke-linejoin="round"/>
<path d="M825.643 546.996V586.826" stroke="#231F20" stroke-linejoin="round"/>
<path d="M700.867 508.964L691.425 526.291L681.983 543.617L671.681 526.786L661.38 509.955L681.124 509.46L700.867 508.964Z" fill="white" stroke="black" stroke-linecap="round" stroke-linejoin="round"/>
<path d="M681.954 520.514L661.38 509.955L681.983 543.617L681.954 520.514Z" fill="black"/>
<path d="M681.954 520.514L700.867 508.964" stroke="black" stroke-linecap="round" stroke-linejoin="round"/>
<path d="M545.896 268.61C555.342 268.61 562.998 276.257 562.998 285.693C562.998 295.128 555.342 302.775 545.896 302.775C536.45 302.775 528.794 295.128 528.794 285.693C528.794 276.257 536.45 268.61 545.896 268.61Z" fill="white" stroke="black" stroke-linecap="round" stroke-linejoin="round"/>
<path d="M536.27 299.813C539.013 301.684 542.327 302.779 545.9 302.779C555.346 302.779 563.005 295.131 563.005 285.693C563.005 282.124 561.909 278.814 560.036 276.074C554.001 285.657 545.867 293.782 536.274 299.81L536.27 299.813Z" fill="black" stroke="black" stroke-linecap="round" stroke-linejoin="round"/>
<path d="M1022.33 273.18L1007.46 288.033L1012.9 308.326L1033.21 313.765L1048.09 298.908L1042.64 278.616L1022.33 273.18Z" fill="white" stroke="black" stroke-linecap="round" stroke-linejoin="round"/>
<path d="M1033.21 313.765L1048.09 298.908L1027.77 293.473L1012.9 308.326L1033.21 313.765Z" fill="black" stroke="black" stroke-width="0.25" stroke-linecap="round" stroke-linejoin="round"/>
<path d="M1022.33 273.18L1027.77 293.473" stroke="black" stroke-linecap="round" stroke-linejoin="round"/>
<path d="M635.083 -108.82V-16.0587L736.466 56.8453V-35.92L635.083 -108.82Z" fill="#0067FE" stroke="#231F20" stroke-linejoin="round"/>
</g>
</g>
<defs>
<clipPath id="clip0_3513_1115">
<rect width="1280" height="800" fill="white"/>
</clipPath>
<clipPath id="clip1_3513_1115">
<rect width="966" height="1074" fill="white" transform="translate(386 -109)"/>
</clipPath>
</defs>
</svg>
